<?xml version="1.0" encoding="UTF-8" standalone="no"?>
<!DOCTYPE svg PUBLIC "-//W3C//DTD SVG 1.1//EN"
 "http://www.w3.org/Graphics/SVG/1.1/DTD/svg11.dtd">
<!-- Generated by graphviz version 2.36.0 (20140111.2315)
 -->
<!-- Title: ASCIIWars.Game.Selectable Pages: 1 -->
<svg width="288pt" height="140pt"
 viewBox="0.00 0.00 288.00 140.00" xmlns="http://www.w3.org/2000/svg" xmlns:xlink="http://www.w3.org/1999/xlink">
<g id="graph0" class="graph" transform="scale(1 1) rotate(0) translate(4 136)">
<title>ASCIIWars.Game.Selectable</title>
<polygon fill="white" stroke="none" points="-4,4 -4,-136 284,-136 284,4 -4,4"/>
<!-- Node158 -->
<g id="node1" class="node"><title>Node158</title>
<polygon fill="#bfbfbf" stroke="black" points="64.5,-56.5 64.5,-75.5 209.5,-75.5 209.5,-56.5 64.5,-56.5"/>
<text text-anchor="middle" x="137" y="-63.5" font-family="Helvetica,sans-Serif" font-size="10.00">ASCIIWars.Game.Selectable</text>
</g>
<!-- Node160 -->
<g id="node3" class="node"><title>Node160</title>
<g id="a_node3"><a xlink:href="$classASCIIWars_1_1Game_1_1Armor.html" xlink:title="ASCIIWars.Game.Armor">
<polygon fill="white" stroke="black" points="0,-0.5 0,-19.5 126,-19.5 126,-0.5 0,-0.5"/>
<text text-anchor="middle" x="63" y="-7.5" font-family="Helvetica,sans-Serif" font-size="10.00">ASCIIWars.Game.Armor</text>
</a>
</g>
</g>
<!-- Node158&#45;&gt;Node160 -->
<g id="edge2" class="edge"><title>Node158&#45;&gt;Node160</title>
<path fill="none" stroke="midnightblue" d="M116.966,-50.3804C103.591,-40.6204 86.4412,-28.1057 75.1057,-19.8339"/>
<polygon fill="midnightblue" stroke="midnightblue" points="114.97,-53.2565 125.111,-56.324 119.096,-47.602 114.97,-53.2565"/>
</g>
<!-- Node161 -->
<g id="node4" class="node"><title>Node161</title>
<g id="a_node4"><a xlink:href="$classASCIIWars_1_1Game_1_1Weapon.html" xlink:title="ASCIIWars.Game.Weapon">
<polygon fill="white" stroke="black" points="144,-0.5 144,-19.5 280,-19.5 280,-0.5 144,-0.5"/>
<text text-anchor="middle" x="212" y="-7.5" font-family="Helvetica,sans-Serif" font-size="10.00">ASCIIWars.Game.Weapon</text>
</a>
</g>
</g>
<!-- Node158&#45;&gt;Node161 -->
<g id="edge3" class="edge"><title>Node158&#45;&gt;Node161</title>
<path fill="none" stroke="midnightblue" d="M157.305,-50.3804C170.861,-40.6204 188.242,-28.1057 199.731,-19.8339"/>
<polygon fill="midnightblue" stroke="midnightblue" points="155.12,-47.6405 149.05,-56.324 159.21,-53.3213 155.12,-47.6405"/>
</g>
<!-- Node159 -->
<g id="node2" class="node"><title>Node159</title>
<g id="a_node2"><a xlink:href="$classASCIIWars_1_1Game_1_1Item.html" xlink:title="Item">
<polygon fill="white" stroke="black" points="119,-112.5 119,-131.5 155,-131.5 155,-112.5 119,-112.5"/>
<text text-anchor="middle" x="137" y="-119.5" font-family="Helvetica,sans-Serif" font-size="10.00">Item</text>
</a>
</g>
</g>
<!-- Node159&#45;&gt;Node158 -->
<g id="edge1" class="edge"><title>Node159&#45;&gt;Node158</title>
<path fill="none" stroke="midnightblue" d="M137,-101.805C137,-92.9102 137,-82.7798 137,-75.7511"/>
<polygon fill="midnightblue" stroke="midnightblue" points="133.5,-102.083 137,-112.083 140.5,-102.083 133.5,-102.083"/>
</g>
</g>
</svg>
