<?xml version="1.0" encoding="UTF-8" standalone="no"?>
<!DOCTYPE svg PUBLIC "-//W3C//DTD SVG 1.1//EN"
 "http://www.w3.org/Graphics/SVG/1.1/DTD/svg11.dtd">
<!-- Generated by graphviz version 2.36.0 (20140111.2315)
 -->
<!-- Title: ASCIIWars.Game.GameController Pages: 1 -->
<svg width="450pt" height="153pt"
 viewBox="0.00 0.00 450.00 153.00" xmlns="http://www.w3.org/2000/svg" xmlns:xlink="http://www.w3.org/1999/xlink">
<g id="graph0" class="graph" transform="scale(1 1) rotate(0) translate(4 149)">
<title>ASCIIWars.Game.GameController</title>
<polygon fill="white" stroke="none" points="-4,4 -4,-149 446,-149 446,4 -4,4"/>
<!-- Node63 -->
<g id="node1" class="node"><title>Node63</title>
<polygon fill="#bfbfbf" stroke="black" points="272.5,-57.5 272.5,-76.5 441.5,-76.5 441.5,-57.5 272.5,-57.5"/>
<text text-anchor="middle" x="357" y="-64.5" font-family="Helvetica,sans-Serif" font-size="10.00">ASCIIWars.Game.GameController</text>
</g>
<!-- Node64 -->
<g id="node2" class="node"><title>Node64</title>
<g id="a_node2"><a xlink:href="$classASCIIWars_1_1Game_1_1SituationContainer.html" xlink:title="ASCIIWars.Game.Situation\lContainer">
<polygon fill="white" stroke="black" points="12,-115 12,-145 150,-145 150,-115 12,-115"/>
<text text-anchor="start" x="20" y="-133" font-family="Helvetica,sans-Serif" font-size="10.00">ASCIIWars.Game.Situation</text>
<text text-anchor="middle" x="81" y="-122" font-family="Helvetica,sans-Serif" font-size="10.00">Container</text>
</a>
</g>
</g>
<!-- Node64&#45;&gt;Node63 -->
<g id="edge1" class="edge"><title>Node64&#45;&gt;Node63</title>
<path fill="none" stroke="#9a32cd" stroke-dasharray="5,2" d="M160.219,-114.531C189.691,-108.466 223.461,-101.233 254,-94 276.638,-88.6386 301.918,-81.9518 321.647,-76.5741"/>
<polygon fill="#9a32cd" stroke="#9a32cd" points="159.495,-111.107 150.4,-116.541 160.899,-117.964 159.495,-111.107"/>
<text text-anchor="middle" x="217" y="-113" font-family="Helvetica,sans-Serif" font-size="10.00"> situations</text>
</g>
<!-- Node65 -->
<g id="node3" class="node"><title>Node65</title>
<g id="a_node3"><a xlink:href="$classASCIIWars_1_1Game_1_1Situation.html" xlink:title="ASCIIWars.Game.Situation">
<polygon fill="white" stroke="black" points="12,-76.5 12,-95.5 150,-95.5 150,-76.5 12,-76.5"/>
<text text-anchor="middle" x="81" y="-83.5" font-family="Helvetica,sans-Serif" font-size="10.00">ASCIIWars.Game.Situation</text>
</a>
</g>
</g>
<!-- Node65&#45;&gt;Node63 -->
<g id="edge2" class="edge"><title>Node65&#45;&gt;Node63</title>
<path fill="none" stroke="#9a32cd" stroke-dasharray="5,2" d="M160.265,-80.5728C195.315,-78.1424 236.691,-75.2732 272.352,-72.8004"/>
<polygon fill="#9a32cd" stroke="#9a32cd" points="159.816,-77.0955 150.082,-81.279 160.301,-84.0787 159.816,-77.0955"/>
<text text-anchor="middle" x="217" y="-82" font-family="Helvetica,sans-Serif" font-size="10.00"> currentSituation</text>
</g>
<!-- Node66 -->
<g id="node4" class="node"><title>Node66</title>
<g id="a_node4"><a xlink:href="$classASCIIWars_1_1Game_1_1Player.html" xlink:title="Представляет игрока. ">
<polygon fill="white" stroke="black" points="17.5,-38.5 17.5,-57.5 144.5,-57.5 144.5,-38.5 17.5,-38.5"/>
<text text-anchor="middle" x="81" y="-45.5" font-family="Helvetica,sans-Serif" font-size="10.00">ASCIIWars.Game.Player</text>
</a>
</g>
</g>
<!-- Node66&#45;&gt;Node63 -->
<g id="edge3" class="edge"><title>Node66&#45;&gt;Node63</title>
<path fill="none" stroke="#9a32cd" stroke-dasharray="5,2" d="M154.521,-53.0288C190.762,-55.5419 234.802,-58.5958 272.454,-61.2066"/>
<polygon fill="#9a32cd" stroke="#9a32cd" points="154.736,-49.5354 144.518,-52.3352 154.252,-56.5186 154.736,-49.5354"/>
<text text-anchor="middle" x="217" y="-63" font-family="Helvetica,sans-Serif" font-size="10.00"> player</text>
</g>
<!-- Node67 -->
<g id="node5" class="node"><title>Node67</title>
<g id="a_node5"><a xlink:href="$classASCIIWars_1_1Game_1_1ItemContainer.html" xlink:title="ASCIIWars.Game.ItemContainer">
<polygon fill="white" stroke="black" points="0,-0.5 0,-19.5 162,-19.5 162,-0.5 0,-0.5"/>
<text text-anchor="middle" x="81" y="-7.5" font-family="Helvetica,sans-Serif" font-size="10.00">ASCIIWars.Game.ItemContainer</text>
</a>
</g>
</g>
<!-- Node67&#45;&gt;Node63 -->
<g id="edge4" class="edge"><title>Node67&#45;&gt;Node63</title>
<path fill="none" stroke="#9a32cd" stroke-dasharray="5,2" d="M150.732,-21.2328C182.296,-26.6871 220.155,-33.6462 254,-41 276.501,-45.889 301.562,-52.2638 321.212,-57.4775"/>
<polygon fill="#9a32cd" stroke="#9a32cd" points="151.165,-17.7561 140.718,-19.5161 149.982,-24.6555 151.165,-17.7561"/>
<text text-anchor="middle" x="217" y="-44" font-family="Helvetica,sans-Serif" font-size="10.00"> items</text>
</g>
</g>
</svg>
