<?xml version="1.0" encoding="UTF-8" standalone="no"?>
<!DOCTYPE svg PUBLIC "-//W3C//DTD SVG 1.1//EN"
 "http://www.w3.org/Graphics/SVG/1.1/DTD/svg11.dtd">
<!-- Generated by graphviz version 2.36.0 (20140111.2315)
 -->
<!-- Title: ASCIIWars.Game.Campaign Pages: 1 -->
<svg width="326pt" height="108pt"
 viewBox="0.00 0.00 326.00 108.00" xmlns="http://www.w3.org/2000/svg" xmlns:xlink="http://www.w3.org/1999/xlink">
<g id="graph0" class="graph" transform="scale(1 1) rotate(0) translate(4 104)">
<title>ASCIIWars.Game.Campaign</title>
<polygon fill="white" stroke="none" points="-4,4 -4,-104 322,-104 322,4 -4,4"/>
<!-- Node22 -->
<g id="node1" class="node"><title>Node22</title>
<polygon fill="#bfbfbf" stroke="black" points="81,-0.5 81,-19.5 225,-19.5 225,-0.5 81,-0.5"/>
<text text-anchor="middle" x="153" y="-7.5" font-family="Helvetica,sans-Serif" font-size="10.00">ASCIIWars.Game.Campaign</text>
</g>
<!-- Node23 -->
<g id="node2" class="node"><title>Node23</title>
<g id="a_node2"><a xlink:href="$classASCIIWars_1_1Game_1_1SituationContainer.html" xlink:title="ASCIIWars.Game.Situation\lContainer">
<polygon fill="white" stroke="black" points="0,-69 0,-99 138,-99 138,-69 0,-69"/>
<text text-anchor="start" x="8" y="-87" font-family="Helvetica,sans-Serif" font-size="10.00">ASCIIWars.Game.Situation</text>
<text text-anchor="middle" x="69" y="-76" font-family="Helvetica,sans-Serif" font-size="10.00">Container</text>
</a>
</g>
</g>
<!-- Node23&#45;&gt;Node22 -->
<g id="edge1" class="edge"><title>Node23&#45;&gt;Node22</title>
<path fill="none" stroke="#9a32cd" stroke-dasharray="5,2" d="M93.2482,-62.2158C109.681,-48.1309 130.556,-30.2378 142.781,-19.7589"/>
<polygon fill="#9a32cd" stroke="#9a32cd" points="90.9105,-59.6098 85.5957,-68.7751 95.4661,-64.9246 90.9105,-59.6098"/>
<text text-anchor="middle" x="144" y="-41.5" font-family="Helvetica,sans-Serif" font-size="10.00"> situations</text>
</g>
<!-- Node24 -->
<g id="node3" class="node"><title>Node24</title>
<g id="a_node3"><a xlink:href="$classASCIIWars_1_1Game_1_1ItemContainer.html" xlink:title="ASCIIWars.Game.ItemContainer">
<polygon fill="white" stroke="black" points="156,-74.5 156,-93.5 318,-93.5 318,-74.5 156,-74.5"/>
<text text-anchor="middle" x="237" y="-81.5" font-family="Helvetica,sans-Serif" font-size="10.00">ASCIIWars.Game.ItemContainer</text>
</a>
</g>
</g>
<!-- Node24&#45;&gt;Node22 -->
<g id="edge2" class="edge"><title>Node24&#45;&gt;Node22</title>
<path fill="none" stroke="#9a32cd" stroke-dasharray="5,2" d="M219.376,-67.8935C202.245,-53.2096 176.839,-31.4332 162.953,-19.531"/>
<polygon fill="#9a32cd" stroke="#9a32cd" points="217.164,-70.6074 227.034,-74.4579 221.719,-65.2926 217.164,-70.6074"/>
<text text-anchor="middle" x="210.5" y="-41.5" font-family="Helvetica,sans-Serif" font-size="10.00"> items</text>
</g>
</g>
</svg>
