<?xml version="1.0" encoding="UTF-8" standalone="no"?>
<!DOCTYPE svg PUBLIC "-//W3C//DTD SVG 1.1//EN"
 "http://www.w3.org/Graphics/SVG/1.1/DTD/svg11.dtd">
<!-- Generated by graphviz version 2.36.0 (20140111.2315)
 -->
<!-- Title: ASCIIWars.Game.Quest Pages: 1 -->
<svg width="172pt" height="164pt"
 viewBox="0.00 0.00 172.00 164.00" xmlns="http://www.w3.org/2000/svg" xmlns:xlink="http://www.w3.org/1999/xlink">
<g id="graph0" class="graph" transform="scale(1 1) rotate(0) translate(4 160)">
<title>ASCIIWars.Game.Quest</title>
<polygon fill="white" stroke="none" points="-4,4 -4,-160 168,-160 168,4 -4,4"/>
<!-- Node151 -->
<g id="node1" class="node"><title>Node151</title>
<polygon fill="#bfbfbf" stroke="black" points="19.5,-0.5 19.5,-19.5 144.5,-19.5 144.5,-0.5 19.5,-0.5"/>
<text text-anchor="middle" x="82" y="-7.5" font-family="Helvetica,sans-Serif" font-size="10.00">ASCIIWars.Game.Quest</text>
</g>
<!-- Node152 -->
<g id="node2" class="node"><title>Node152</title>
<g id="a_node2"><a xlink:href="$classASCIIWars_1_1Game_1_1ItemReference.html" xlink:title="ASCIIWars.Game.ItemReference">
<polygon fill="white" stroke="black" points="0,-68.5 0,-87.5 164,-87.5 164,-68.5 0,-68.5"/>
<text text-anchor="middle" x="82" y="-75.5" font-family="Helvetica,sans-Serif" font-size="10.00">ASCIIWars.Game.ItemReference</text>
</a>
</g>
</g>
<!-- Node152&#45;&gt;Node151 -->
<g id="edge1" class="edge"><title>Node152&#45;&gt;Node151</title>
<path fill="none" stroke="#9a32cd" stroke-dasharray="5,2" d="M82,-58.0413C82,-45.4724 82,-29.5631 82,-19.8411"/>
<polygon fill="#9a32cd" stroke="#9a32cd" points="78.5001,-58.3716 82,-68.3717 85.5001,-58.3717 78.5001,-58.3716"/>
<text text-anchor="middle" x="105.5" y="-41.5" font-family="Helvetica,sans-Serif" font-size="10.00"> questItem</text>
</g>
<!-- Node153 -->
<g id="node3" class="node"><title>Node153</title>
<g id="a_node3"><a xlink:href="$classASCIIWars_1_1Game_1_1Item.html" xlink:title="ASCIIWars.Game.Item">
<polygon fill="white" stroke="black" points="23,-136.5 23,-155.5 141,-155.5 141,-136.5 23,-136.5"/>
<text text-anchor="middle" x="82" y="-143.5" font-family="Helvetica,sans-Serif" font-size="10.00">ASCIIWars.Game.Item</text>
</a>
</g>
</g>
<!-- Node153&#45;&gt;Node152 -->
<g id="edge2" class="edge"><title>Node153&#45;&gt;Node152</title>
<path fill="none" stroke="#9a32cd" stroke-dasharray="5,2" d="M82,-126.041C82,-113.472 82,-97.5631 82,-87.8411"/>
<polygon fill="#9a32cd" stroke="#9a32cd" points="78.5001,-126.372 82,-136.372 85.5001,-126.372 78.5001,-126.372"/>
<text text-anchor="middle" x="117.5" y="-109.5" font-family="Helvetica,sans-Serif" font-size="10.00"> _refrencedItem</text>
</g>
</g>
</svg>
