<?xml version="1.0" encoding="UTF-8" standalone="no"?>
<!DOCTYPE svg PUBLIC "-//W3C//DTD SVG 1.1//EN"
 "http://www.w3.org/Graphics/SVG/1.1/DTD/svg11.dtd">
<!-- Generated by graphviz version 2.36.0 (20140111.2315)
 -->
<!-- Title: ASCIIWars.Modding.ModDescriptor Pages: 1 -->
<svg width="339pt" height="96pt"
 viewBox="0.00 0.00 339.00 96.00" xmlns="http://www.w3.org/2000/svg" xmlns:xlink="http://www.w3.org/1999/xlink">
<g id="graph0" class="graph" transform="scale(1 1) rotate(0) translate(4 92)">
<title>ASCIIWars.Modding.ModDescriptor</title>
<polygon fill="white" stroke="none" points="-4,4 -4,-92 335,-92 335,4 -4,4"/>
<!-- Node132 -->
<g id="node1" class="node"><title>Node132</title>
<polygon fill="#bfbfbf" stroke="black" points="82.5,-0.5 82.5,-19.5 257.5,-19.5 257.5,-0.5 82.5,-0.5"/>
<text text-anchor="middle" x="170" y="-7.5" font-family="Helvetica,sans-Serif" font-size="10.00">ASCIIWars.Modding.ModDescriptor</text>
</g>
<!-- Node133 -->
<g id="node2" class="node"><title>Node133</title>
<g id="a_node2"><a xlink:href="$classASCIIWars_1_1Game_1_1AssetContainer.html" xlink:title="Контейнер ассетов. Хранит их по групам. В каждой группе находятся файлы ассетов. ">
<polygon fill="white" stroke="black" points="-0.5,-68.5 -0.5,-87.5 166.5,-87.5 166.5,-68.5 -0.5,-68.5"/>
<text text-anchor="middle" x="83" y="-75.5" font-family="Helvetica,sans-Serif" font-size="10.00">ASCIIWars.Game.AssetContainer</text>
</a>
</g>
</g>
<!-- Node133&#45;&gt;Node132 -->
<g id="edge1" class="edge"><title>Node133&#45;&gt;Node132</title>
<path fill="none" stroke="#9a32cd" stroke-dasharray="5,2" d="M102.646,-62.0961C119.908,-49.0012 144.424,-30.4028 158.623,-19.6305"/>
<polygon fill="#9a32cd" stroke="#9a32cd" points="100.225,-59.5393 94.3737,-68.3717 104.456,-65.1162 100.225,-59.5393"/>
<text text-anchor="middle" x="154" y="-41.5" font-family="Helvetica,sans-Serif" font-size="10.00"> _assets</text>
</g>
<!-- Node134 -->
<g id="node3" class="node"><title>Node134</title>
<g id="a_node3"><a xlink:href="$classASCIIWars_1_1Modding_1_1ModInfo.html" xlink:title="ASCIIWars.Modding.ModInfo">
<polygon fill="white" stroke="black" points="185,-68.5 185,-87.5 331,-87.5 331,-68.5 185,-68.5"/>
<text text-anchor="middle" x="258" y="-75.5" font-family="Helvetica,sans-Serif" font-size="10.00">ASCIIWars.Modding.ModInfo</text>
</a>
</g>
</g>
<!-- Node134&#45;&gt;Node132 -->
<g id="edge2" class="edge"><title>Node134&#45;&gt;Node132</title>
<path fill="none" stroke="#9a32cd" stroke-dasharray="5,2" d="M238.128,-62.0961C220.668,-49.0012 195.87,-30.4028 181.507,-19.6305"/>
<polygon fill="#9a32cd" stroke="#9a32cd" points="236.396,-65.1716 246.496,-68.3717 240.596,-59.5716 236.396,-65.1716"/>
<text text-anchor="middle" x="241.5" y="-41.5" font-family="Helvetica,sans-Serif" font-size="10.00"> modInfo</text>
</g>
</g>
</svg>
