<?xml version="1.0" encoding="UTF-8" standalone="no"?>
<!DOCTYPE svg PUBLIC "-//W3C//DTD SVG 1.1//EN"
 "http://www.w3.org/Graphics/SVG/1.1/DTD/svg11.dtd">
<!-- Generated by graphviz version 2.36.0 (20140111.2315)
 -->
<!-- Title: obj/x86 Pages: 1 -->
<svg width="254pt" height="111pt"
 viewBox="0.00 0.00 254.00 111.00" xmlns="http://www.w3.org/2000/svg" xmlns:xlink="http://www.w3.org/1999/xlink">
<g id="graph0" class="graph" transform="scale(1 1) rotate(0) translate(4 107)">
<title>obj/x86</title>
<polygon fill="white" stroke="none" points="-4,4 -4,-107 250,-107 250,4 -4,4"/>
<g id="clust1" class="cluster"><title>clusterdir_43724e81dd40e09f32417973865cdd64</title>
<g id="a_clust1"><a xlink:href="dir_43724e81dd40e09f32417973865cdd64.html" xlink:title="obj">
<polygon fill="#ddddee" stroke="black" points="8,-8 8,-95 238,-95 238,-8 8,-8"/>
<text text-anchor="middle" x="123" y="-83" font-family="Helvetica,sans-Serif" font-size="10.00">obj</text>
</a>
</g>
</g>
<g id="clust2" class="cluster"><title>clusterdir_d47853e6fb8fbc7aaad40510cff11bbf</title>
<g id="a_clust2"><a xlink:href="dir_d47853e6fb8fbc7aaad40510cff11bbf.html">
<polygon fill="#eeeeff" stroke="black" points="16,-16 16,-68 230,-68 230,-16 16,-16"/>
</a>
</g>
</g>
<!-- dir_d47853e6fb8fbc7aaad40510cff11bbf -->
<g id="node1" class="node"><title>dir_d47853e6fb8fbc7aaad40510cff11bbf</title>
<text text-anchor="middle" x="195" y="-39.5" font-family="Helvetica,sans-Serif" font-size="10.00">x86</text>
</g>
<!-- dir_a404c407b50258a875677cca767ffb8d -->
<g id="node2" class="node"><title>dir_a404c407b50258a875677cca767ffb8d</title>
<g id="a_node2"><a xlink:href="dir_a404c407b50258a875677cca767ffb8d.html" xlink:title="Debug">
<polygon fill="white" stroke="black" points="150,-60 96,-60 96,-24 150,-24 150,-60"/>
<text text-anchor="middle" x="123" y="-39.5" font-family="Helvetica,sans-Serif" font-size="10.00">Debug</text>
</a>
</g>
</g>
<!-- dir_5f27b254bdfe3a9dc83a1ed338607a0e -->
<g id="node3" class="node"><title>dir_5f27b254bdfe3a9dc83a1ed338607a0e</title>
<g id="a_node3"><a xlink:href="dir_5f27b254bdfe3a9dc83a1ed338607a0e.html" xlink:title="Release">
<polygon fill="white" stroke="black" points="78,-60 24,-60 24,-24 78,-24 78,-60"/>
<text text-anchor="middle" x="51" y="-39.5" font-family="Helvetica,sans-Serif" font-size="10.00">Release</text>
</a>
</g>
</g>
</g>
</svg>
