<?xml version="1.0" encoding="UTF-8" standalone="no"?>
<!DOCTYPE svg PUBLIC "-//W3C//DTD SVG 1.1//EN"
 "http://www.w3.org/Graphics/SVG/1.1/DTD/svg11.dtd">
<!-- Generated by graphviz version 2.36.0 (20140111.2315)
 -->
<!-- Title: ASCIIWars.Game.HealthPotion Pages: 1 -->
<svg width="164pt" height="140pt"
 viewBox="0.00 0.00 164.00 140.00" xmlns="http://www.w3.org/2000/svg" xmlns:xlink="http://www.w3.org/1999/xlink">
<g id="graph0" class="graph" transform="scale(1 1) rotate(0) translate(4 136)">
<title>ASCIIWars.Game.HealthPotion</title>
<polygon fill="white" stroke="none" points="-4,4 -4,-136 160,-136 160,4 -4,4"/>
<!-- Node3 -->
<g id="node1" class="node"><title>Node3</title>
<polygon fill="#bfbfbf" stroke="black" points="0,-0.5 0,-19.5 156,-19.5 156,-0.5 0,-0.5"/>
<text text-anchor="middle" x="78" y="-7.5" font-family="Helvetica,sans-Serif" font-size="10.00">ASCIIWars.Game.HealthPotion</text>
</g>
<!-- Node4 -->
<g id="node2" class="node"><title>Node4</title>
<g id="a_node2"><a xlink:href="classASCIIWars_1_1Game_1_1Consumable.html" target="_top" xlink:title="Consumable">
<polygon fill="white" stroke="black" points="41.5,-56.5 41.5,-75.5 114.5,-75.5 114.5,-56.5 41.5,-56.5"/>
<text text-anchor="middle" x="78" y="-63.5" font-family="Helvetica,sans-Serif" font-size="10.00">Consumable</text>
</a>
</g>
</g>
<!-- Node4&#45;&gt;Node3 -->
<g id="edge1" class="edge"><title>Node4&#45;&gt;Node3</title>
<path fill="none" stroke="midnightblue" d="M78,-45.8045C78,-36.9102 78,-26.7798 78,-19.7511"/>
<polygon fill="midnightblue" stroke="midnightblue" points="74.5001,-46.083 78,-56.083 81.5001,-46.083 74.5001,-46.083"/>
</g>
<!-- Node5 -->
<g id="node3" class="node"><title>Node5</title>
<g id="a_node3"><a xlink:href="classASCIIWars_1_1Game_1_1Item.html" target="_top" xlink:title="Item">
<polygon fill="white" stroke="black" points="60,-112.5 60,-131.5 96,-131.5 96,-112.5 60,-112.5"/>
<text text-anchor="middle" x="78" y="-119.5" font-family="Helvetica,sans-Serif" font-size="10.00">Item</text>
</a>
</g>
</g>
<!-- Node5&#45;&gt;Node4 -->
<g id="edge2" class="edge"><title>Node5&#45;&gt;Node4</title>
<path fill="none" stroke="midnightblue" d="M78,-101.805C78,-92.9102 78,-82.7798 78,-75.7511"/>
<polygon fill="midnightblue" stroke="midnightblue" points="74.5001,-102.083 78,-112.083 81.5001,-102.083 74.5001,-102.083"/>
</g>
</g>
</svg>
