<?xml version="1.0" encoding="UTF-8" standalone="no"?>
<!DOCTYPE svg PUBLIC "-//W3C//DTD SVG 1.1//EN"
 "http://www.w3.org/Graphics/SVG/1.1/DTD/svg11.dtd">
<!-- Generated by graphviz version 2.36.0 (20140111.2315)
 -->
<!-- Title: ASCIIWars.Game.Consumable Pages: 1 -->
<svg width="344pt" height="140pt"
 viewBox="0.00 0.00 344.00 140.00" xmlns="http://www.w3.org/2000/svg" xmlns:xlink="http://www.w3.org/1999/xlink">
<g id="graph0" class="graph" transform="scale(1 1) rotate(0) translate(4 136)">
<title>ASCIIWars.Game.Consumable</title>
<polygon fill="white" stroke="none" points="-4,4 -4,-136 340,-136 340,4 -4,4"/>
<!-- Node0 -->
<g id="node1" class="node"><title>Node0</title>
<polygon fill="#bfbfbf" stroke="black" points="91.5,-56.5 91.5,-75.5 246.5,-75.5 246.5,-56.5 91.5,-56.5"/>
<text text-anchor="middle" x="169" y="-63.5" font-family="Helvetica,sans-Serif" font-size="10.00">ASCIIWars.Game.Consumable</text>
</g>
<!-- Node2 -->
<g id="node3" class="node"><title>Node2</title>
<g id="a_node3"><a xlink:href="classASCIIWars_1_1Game_1_1HealthBooster.html" target="_top" xlink:title="ASCIIWars.Game.HealthBooster">
<polygon fill="white" stroke="black" points="0,-0.5 0,-19.5 162,-19.5 162,-0.5 0,-0.5"/>
<text text-anchor="middle" x="81" y="-7.5" font-family="Helvetica,sans-Serif" font-size="10.00">ASCIIWars.Game.HealthBooster</text>
</a>
</g>
</g>
<!-- Node0&#45;&gt;Node2 -->
<g id="edge2" class="edge"><title>Node0&#45;&gt;Node2</title>
<path fill="none" stroke="midnightblue" d="M146.023,-50.9005C129.887,-40.9986 108.819,-28.0705 95.1036,-19.6545"/>
<polygon fill="midnightblue" stroke="midnightblue" points="144.507,-54.0769 154.861,-56.324 148.169,-48.1106 144.507,-54.0769"/>
</g>
<!-- Node3 -->
<g id="node4" class="node"><title>Node3</title>
<g id="a_node4"><a xlink:href="classASCIIWars_1_1Game_1_1HealthPotion.html" target="_top" xlink:title="ASCIIWars.Game.HealthPotion">
<polygon fill="white" stroke="black" points="180,-0.5 180,-19.5 336,-19.5 336,-0.5 180,-0.5"/>
<text text-anchor="middle" x="258" y="-7.5" font-family="Helvetica,sans-Serif" font-size="10.00">ASCIIWars.Game.HealthPotion</text>
</a>
</g>
</g>
<!-- Node0&#45;&gt;Node3 -->
<g id="edge3" class="edge"><title>Node0&#45;&gt;Node3</title>
<path fill="none" stroke="midnightblue" d="M192.238,-50.9005C208.558,-40.9986 229.865,-28.0705 243.736,-19.6545"/>
<polygon fill="midnightblue" stroke="midnightblue" points="190.033,-48.1444 183.299,-56.324 193.664,-54.1289 190.033,-48.1444"/>
</g>
<!-- Node1 -->
<g id="node2" class="node"><title>Node1</title>
<g id="a_node2"><a xlink:href="classASCIIWars_1_1Game_1_1Item.html" target="_top" xlink:title="Item">
<polygon fill="white" stroke="black" points="151,-112.5 151,-131.5 187,-131.5 187,-112.5 151,-112.5"/>
<text text-anchor="middle" x="169" y="-119.5" font-family="Helvetica,sans-Serif" font-size="10.00">Item</text>
</a>
</g>
</g>
<!-- Node1&#45;&gt;Node0 -->
<g id="edge1" class="edge"><title>Node1&#45;&gt;Node0</title>
<path fill="none" stroke="midnightblue" d="M169,-101.805C169,-92.9102 169,-82.7798 169,-75.7511"/>
<polygon fill="midnightblue" stroke="midnightblue" points="165.5,-102.083 169,-112.083 172.5,-102.083 165.5,-102.083"/>
</g>
</g>
</svg>
