<?xml version="1.0" encoding="UTF-8" standalone="no"?>
<!DOCTYPE svg PUBLIC "-//W3C//DTD SVG 1.1//EN"
 "http://www.w3.org/Graphics/SVG/1.1/DTD/svg11.dtd">
<!-- Generated by graphviz version 2.36.0 (20140111.2315)
 -->
<!-- Title: ASCIIWars.Game.HealthBooster Pages: 1 -->
<svg width="170pt" height="140pt"
 viewBox="0.00 0.00 170.00 140.00" xmlns="http://www.w3.org/2000/svg" xmlns:xlink="http://www.w3.org/1999/xlink">
<g id="graph0" class="graph" transform="scale(1 1) rotate(0) translate(4 136)">
<title>ASCIIWars.Game.HealthBooster</title>
<polygon fill="white" stroke="none" points="-4,4 -4,-136 166,-136 166,4 -4,4"/>
<!-- Node3 -->
<g id="node1" class="node"><title>Node3</title>
<polygon fill="#bfbfbf" stroke="black" points="0,-0.5 0,-19.5 162,-19.5 162,-0.5 0,-0.5"/>
<text text-anchor="middle" x="81" y="-7.5" font-family="Helvetica,sans-Serif" font-size="10.00">ASCIIWars.Game.HealthBooster</text>
</g>
<!-- Node4 -->
<g id="node2" class="node"><title>Node4</title>
<g id="a_node2"><a xlink:href="classASCIIWars_1_1Game_1_1Consumable.html" target="_top" xlink:title="Consumable">
<polygon fill="white" stroke="black" points="44.5,-56.5 44.5,-75.5 117.5,-75.5 117.5,-56.5 44.5,-56.5"/>
<text text-anchor="middle" x="81" y="-63.5" font-family="Helvetica,sans-Serif" font-size="10.00">Consumable</text>
</a>
</g>
</g>
<!-- Node4&#45;&gt;Node3 -->
<g id="edge1" class="edge"><title>Node4&#45;&gt;Node3</title>
<path fill="none" stroke="midnightblue" d="M81,-45.8045C81,-36.9102 81,-26.7798 81,-19.7511"/>
<polygon fill="midnightblue" stroke="midnightblue" points="77.5001,-46.083 81,-56.083 84.5001,-46.083 77.5001,-46.083"/>
</g>
<!-- Node5 -->
<g id="node3" class="node"><title>Node5</title>
<g id="a_node3"><a xlink:href="classASCIIWars_1_1Game_1_1Item.html" target="_top" xlink:title="Item">
<polygon fill="white" stroke="black" points="63,-112.5 63,-131.5 99,-131.5 99,-112.5 63,-112.5"/>
<text text-anchor="middle" x="81" y="-119.5" font-family="Helvetica,sans-Serif" font-size="10.00">Item</text>
</a>
</g>
</g>
<!-- Node5&#45;&gt;Node4 -->
<g id="edge2" class="edge"><title>Node5&#45;&gt;Node4</title>
<path fill="none" stroke="midnightblue" d="M81,-101.805C81,-92.9102 81,-82.7798 81,-75.7511"/>
<polygon fill="midnightblue" stroke="midnightblue" points="77.5001,-102.083 81,-112.083 84.5001,-102.083 77.5001,-102.083"/>
</g>
</g>
</svg>
