<?xml version="1.0" encoding="UTF-8" standalone="no"?>
<!DOCTYPE svg PUBLIC "-//W3C//DTD SVG 1.1//EN"
 "http://www.w3.org/Graphics/SVG/1.1/DTD/svg11.dtd">
<!-- Generated by graphviz version 2.36.0 (20140111.2315)
 -->
<!-- Title: Иерархия классов. Графический вид. Pages: 1 -->
<svg width="516pt" height="151pt"
 viewBox="0.00 0.00 516.00 151.00" xmlns="http://www.w3.org/2000/svg" xmlns:xlink="http://www.w3.org/1999/xlink">
<g id="graph0" class="graph" transform="scale(1 1) rotate(0) translate(4 147)">
<title>Иерархия классов. Графический вид.</title>
<polygon fill="white" stroke="none" points="-4,4 -4,-147 512,-147 512,4 -4,4"/>
<!-- Node0 -->
<g id="node1" class="node"><title>Node0</title>
<g id="a_node1"><a xlink:href="classASCIIWars_1_1Game_1_1Item.html" target="_top" xlink:title="ASCIIWars.Game.Item">
<polygon fill="white" stroke="black" points="0,-57.5 0,-76.5 118,-76.5 118,-57.5 0,-57.5"/>
<text text-anchor="middle" x="59" y="-64.5" font-family="Helvetica,sans-Serif" font-size="10.00">ASCIIWars.Game.Item</text>
</a>
</g>
</g>
<!-- Node1 -->
<g id="node2" class="node"><title>Node1</title>
<g id="a_node2"><a xlink:href="classASCIIWars_1_1Game_1_1Consumable.html" target="_top" xlink:title="ASCIIWars.Game.Consumable">
<polygon fill="white" stroke="black" points="154.5,-95.5 154.5,-114.5 309.5,-114.5 309.5,-95.5 154.5,-95.5"/>
<text text-anchor="middle" x="232" y="-102.5" font-family="Helvetica,sans-Serif" font-size="10.00">ASCIIWars.Game.Consumable</text>
</a>
</g>
</g>
<!-- Node0&#45;&gt;Node1 -->
<g id="edge1" class="edge"><title>Node0&#45;&gt;Node1</title>
<path fill="none" stroke="midnightblue" d="M113.209,-78.8243C137.317,-84.1816 165.44,-90.4311 188.16,-95.4799"/>
<polygon fill="midnightblue" stroke="midnightblue" points="113.672,-75.3417 103.151,-76.589 112.153,-82.175 113.672,-75.3417"/>
</g>
<!-- Node4 -->
<g id="node5" class="node"><title>Node4</title>
<g id="a_node5"><a xlink:href="classASCIIWars_1_1Game_1_1Material.html" target="_top" xlink:title="ASCIIWars.Game.Material">
<polygon fill="white" stroke="black" points="165,-57.5 165,-76.5 299,-76.5 299,-57.5 165,-57.5"/>
<text text-anchor="middle" x="232" y="-64.5" font-family="Helvetica,sans-Serif" font-size="10.00">ASCIIWars.Game.Material</text>
</a>
</g>
</g>
<!-- Node0&#45;&gt;Node4 -->
<g id="edge4" class="edge"><title>Node0&#45;&gt;Node4</title>
<path fill="none" stroke="midnightblue" d="M128.73,-67C140.68,-67 153.085,-67 164.961,-67"/>
<polygon fill="midnightblue" stroke="midnightblue" points="128.37,-63.5001 118.37,-67 128.37,-70.5001 128.37,-63.5001"/>
</g>
<!-- Node5 -->
<g id="node6" class="node"><title>Node5</title>
<g id="a_node6"><a xlink:href="classASCIIWars_1_1Game_1_1Selectable.html" target="_top" xlink:title="ASCIIWars.Game.Selectable">
<polygon fill="white" stroke="black" points="159.5,-19.5 159.5,-38.5 304.5,-38.5 304.5,-19.5 159.5,-19.5"/>
<text text-anchor="middle" x="232" y="-26.5" font-family="Helvetica,sans-Serif" font-size="10.00">ASCIIWars.Game.Selectable</text>
</a>
</g>
</g>
<!-- Node0&#45;&gt;Node5 -->
<g id="edge5" class="edge"><title>Node0&#45;&gt;Node5</title>
<path fill="none" stroke="midnightblue" d="M113.209,-55.1757C137.317,-49.8184 165.44,-43.5689 188.16,-38.5201"/>
<polygon fill="midnightblue" stroke="midnightblue" points="112.153,-51.825 103.151,-57.411 113.672,-58.6583 112.153,-51.825"/>
</g>
<!-- Node2 -->
<g id="node3" class="node"><title>Node2</title>
<g id="a_node3"><a xlink:href="classASCIIWars_1_1Game_1_1HealthBooster.html" target="_top" xlink:title="ASCIIWars.Game.HealthBooster">
<polygon fill="white" stroke="black" points="346,-123.5 346,-142.5 508,-142.5 508,-123.5 346,-123.5"/>
<text text-anchor="middle" x="427" y="-130.5" font-family="Helvetica,sans-Serif" font-size="10.00">ASCIIWars.Game.HealthBooster</text>
</a>
</g>
</g>
<!-- Node1&#45;&gt;Node2 -->
<g id="edge2" class="edge"><title>Node1&#45;&gt;Node2</title>
<path fill="none" stroke="midnightblue" d="M308.54,-115.959C325.615,-118.436 343.61,-121.047 360.243,-123.46"/>
<polygon fill="midnightblue" stroke="midnightblue" points="309.009,-112.491 298.61,-114.519 308.004,-119.418 309.009,-112.491"/>
</g>
<!-- Node3 -->
<g id="node4" class="node"><title>Node3</title>
<g id="a_node4"><a xlink:href="classASCIIWars_1_1Game_1_1HealthPotion.html" target="_top" xlink:title="ASCIIWars.Game.HealthPotion">
<polygon fill="white" stroke="black" points="349,-85.5 349,-104.5 505,-104.5 505,-85.5 349,-85.5"/>
<text text-anchor="middle" x="427" y="-92.5" font-family="Helvetica,sans-Serif" font-size="10.00">ASCIIWars.Game.HealthPotion</text>
</a>
</g>
</g>
<!-- Node1&#45;&gt;Node3 -->
<g id="edge3" class="edge"><title>Node1&#45;&gt;Node3</title>
<path fill="none" stroke="midnightblue" d="M319.651,-100.51C329.401,-100.005 339.287,-99.4929 348.905,-98.9946"/>
<polygon fill="midnightblue" stroke="midnightblue" points="319.361,-97.0205 309.556,-101.033 319.724,-104.011 319.361,-97.0205"/>
</g>
<!-- Node6 -->
<g id="node7" class="node"><title>Node6</title>
<g id="a_node7"><a xlink:href="classASCIIWars_1_1Game_1_1Armor.html" target="_top" xlink:title="ASCIIWars.Game.Armor">
<polygon fill="white" stroke="black" points="364,-38.5 364,-57.5 490,-57.5 490,-38.5 364,-38.5"/>
<text text-anchor="middle" x="427" y="-45.5" font-family="Helvetica,sans-Serif" font-size="10.00">ASCIIWars.Game.Armor</text>
</a>
</g>
</g>
<!-- Node5&#45;&gt;Node6 -->
<g id="edge6" class="edge"><title>Node5&#45;&gt;Node6</title>
<path fill="none" stroke="midnightblue" d="M314.714,-37.0444C331.121,-38.6596 348.112,-40.3322 363.728,-41.8696"/>
<polygon fill="midnightblue" stroke="midnightblue" points="314.887,-33.5445 304.592,-36.0479 314.201,-40.5109 314.887,-33.5445"/>
</g>
<!-- Node7 -->
<g id="node8" class="node"><title>Node7</title>
<g id="a_node8"><a xlink:href="classASCIIWars_1_1Game_1_1Weapon.html" target="_top" xlink:title="ASCIIWars.Game.Weapon">
<polygon fill="white" stroke="black" points="359,-0.5 359,-19.5 495,-19.5 495,-0.5 359,-0.5"/>
<text text-anchor="middle" x="427" y="-7.5" font-family="Helvetica,sans-Serif" font-size="10.00">ASCIIWars.Game.Weapon</text>
</a>
</g>
</g>
<!-- Node5&#45;&gt;Node7 -->
<g id="edge7" class="edge"><title>Node5&#45;&gt;Node7</title>
<path fill="none" stroke="midnightblue" d="M314.658,-20.9611C329.331,-19.5167 344.473,-18.026 358.683,-16.6271"/>
<polygon fill="midnightblue" stroke="midnightblue" points="314.201,-17.4891 304.592,-21.9521 314.887,-24.4555 314.201,-17.4891"/>
</g>
</g>
</svg>
