<?xml version="1.0" encoding="UTF-8" standalone="no"?>
<!DOCTYPE svg PUBLIC "-//W3C//DTD SVG 1.1//EN"
 "http://www.w3.org/Graphics/SVG/1.1/DTD/svg11.dtd">
<!-- Generated by graphviz version 2.36.0 (20140111.2315)
 -->
<!-- Title: Иерархия классов. Графический вид. Pages: 1 -->
<svg width="362pt" height="234pt"
 viewBox="0.00 0.00 362.00 234.00" xmlns="http://www.w3.org/2000/svg" xmlns:xlink="http://www.w3.org/1999/xlink">
<g id="graph0" class="graph" transform="scale(1 1) rotate(0) translate(4 230)">
<title>Иерархия классов. Графический вид.</title>
<polygon fill="white" stroke="none" points="-4,4 -4,-230 358,-230 358,4 -4,4"/>
<!-- Node0 -->
<g id="node1" class="node"><title>Node0</title>
<g id="a_node1"><a xlink:href="interfaceASCIIWars_1_1Game_1_1SituationController.html" target="_top" xlink:title="Контроллер для ситуаций. Используется, если тип ситуации совпадает с ID контроллера. ">
<polygon fill="white" stroke="black" points="0,-98 0,-128 138,-128 138,-98 0,-98"/>
<text text-anchor="start" x="8" y="-116" font-family="Helvetica,sans-Serif" font-size="10.00">ASCIIWars.Game.Situation</text>
<text text-anchor="middle" x="69" y="-105" font-family="Helvetica,sans-Serif" font-size="10.00">Controller</text>
</a>
</g>
</g>
<!-- Node1 -->
<g id="node2" class="node"><title>Node1</title>
<g id="a_node2"><a xlink:href="classASCIIWars_1_1Game_1_1BranchSituationController.html" target="_top" xlink:title="ASCIIWars.Game.BranchSituation\lController">
<polygon fill="white" stroke="black" points="179.5,-196 179.5,-226 348.5,-226 348.5,-196 179.5,-196"/>
<text text-anchor="start" x="187.5" y="-214" font-family="Helvetica,sans-Serif" font-size="10.00">ASCIIWars.Game.BranchSituation</text>
<text text-anchor="middle" x="264" y="-203" font-family="Helvetica,sans-Serif" font-size="10.00">Controller</text>
</a>
</g>
</g>
<!-- Node0&#45;&gt;Node1 -->
<g id="edge1" class="edge"><title>Node0&#45;&gt;Node1</title>
<path fill="none" stroke="midnightblue" d="M95.3937,-134.533C115.566,-150.686 145.096,-172.289 174,-186 181.975,-189.783 190.632,-193.095 199.309,-195.963"/>
<polygon fill="midnightblue" stroke="midnightblue" points="97.58,-131.799 87.6149,-128.201 93.1611,-137.228 97.58,-131.799"/>
</g>
<!-- Node2 -->
<g id="node3" class="node"><title>Node2</title>
<g id="a_node3"><a xlink:href="classASCIIWars_1_1Game_1_1CraftingPlaceSituationController.html" target="_top" xlink:title="ASCIIWars.Game.CraftingPlace\lSituationController">
<polygon fill="white" stroke="black" points="184.5,-147 184.5,-177 343.5,-177 343.5,-147 184.5,-147"/>
<text text-anchor="start" x="192.5" y="-165" font-family="Helvetica,sans-Serif" font-size="10.00">ASCIIWars.Game.CraftingPlace</text>
<text text-anchor="middle" x="264" y="-154" font-family="Helvetica,sans-Serif" font-size="10.00">SituationController</text>
</a>
</g>
</g>
<!-- Node0&#45;&gt;Node2 -->
<g id="edge2" class="edge"><title>Node0&#45;&gt;Node2</title>
<path fill="none" stroke="midnightblue" d="M139.125,-130.55C160.319,-135.931 183.433,-141.799 203.894,-146.994"/>
<polygon fill="midnightblue" stroke="midnightblue" points="139.772,-127.103 129.218,-128.035 138.049,-133.888 139.772,-127.103"/>
</g>
<!-- Node3 -->
<g id="node4" class="node"><title>Node3</title>
<g id="a_node4"><a xlink:href="classASCIIWars_1_1Game_1_1EnemySituationController.html" target="_top" xlink:title="ASCIIWars.Game.EnemySituation\lController">
<polygon fill="white" stroke="black" points="179.5,-98 179.5,-128 348.5,-128 348.5,-98 179.5,-98"/>
<text text-anchor="start" x="187.5" y="-116" font-family="Helvetica,sans-Serif" font-size="10.00">ASCIIWars.Game.EnemySituation</text>
<text text-anchor="middle" x="264" y="-105" font-family="Helvetica,sans-Serif" font-size="10.00">Controller</text>
</a>
</g>
</g>
<!-- Node0&#45;&gt;Node3 -->
<g id="edge3" class="edge"><title>Node0&#45;&gt;Node3</title>
<path fill="none" stroke="midnightblue" d="M148.188,-113C158.444,-113 168.988,-113 179.331,-113"/>
<polygon fill="midnightblue" stroke="midnightblue" points="148.045,-109.5 138.045,-113 148.045,-116.5 148.045,-109.5"/>
</g>
<!-- Node4 -->
<g id="node5" class="node"><title>Node4</title>
<g id="a_node5"><a xlink:href="classASCIIWars_1_1Game_1_1MerchantSituationController.html" target="_top" xlink:title="ASCIIWars.Game.MerchantSituation\lController">
<polygon fill="white" stroke="black" points="174.5,-49 174.5,-79 353.5,-79 353.5,-49 174.5,-49"/>
<text text-anchor="start" x="182.5" y="-67" font-family="Helvetica,sans-Serif" font-size="10.00">ASCIIWars.Game.MerchantSituation</text>
<text text-anchor="middle" x="264" y="-56" font-family="Helvetica,sans-Serif" font-size="10.00">Controller</text>
</a>
</g>
</g>
<!-- Node0&#45;&gt;Node4 -->
<g id="edge4" class="edge"><title>Node0&#45;&gt;Node4</title>
<path fill="none" stroke="midnightblue" d="M139.125,-95.4502C160.319,-90.0694 183.433,-84.201 203.894,-79.0062"/>
<polygon fill="midnightblue" stroke="midnightblue" points="138.049,-92.1121 129.218,-97.9654 139.772,-98.8969 138.049,-92.1121"/>
</g>
<!-- Node5 -->
<g id="node6" class="node"><title>Node5</title>
<g id="a_node6"><a xlink:href="classASCIIWars_1_1Game_1_1QuestSituationController.html" target="_top" xlink:title="ASCIIWars.Game.QuestSituation\lController">
<polygon fill="white" stroke="black" points="182,-0 182,-30 346,-30 346,-0 182,-0"/>
<text text-anchor="start" x="190" y="-18" font-family="Helvetica,sans-Serif" font-size="10.00">ASCIIWars.Game.QuestSituation</text>
<text text-anchor="middle" x="264" y="-7" font-family="Helvetica,sans-Serif" font-size="10.00">Controller</text>
</a>
</g>
</g>
<!-- Node0&#45;&gt;Node5 -->
<g id="edge5" class="edge"><title>Node0&#45;&gt;Node5</title>
<path fill="none" stroke="midnightblue" d="M95.3937,-91.4672C115.566,-75.3136 145.096,-53.7108 174,-40 181.975,-36.2168 190.632,-32.9052 199.309,-30.0373"/>
<polygon fill="midnightblue" stroke="midnightblue" points="93.1611,-88.7716 87.6149,-97.7989 97.58,-94.2005 93.1611,-88.7716"/>
</g>
</g>
</svg>
