<?xml version="1.0" encoding="UTF-8" standalone="no"?>
<!DOCTYPE svg PUBLIC "-//W3C//DTD SVG 1.1//EN"
 "http://www.w3.org/Graphics/SVG/1.1/DTD/svg11.dtd">
<!-- Generated by graphviz version 2.36.0 (20140111.2315)
 -->
<!-- Title: Иерархия классов. Графический вид. Pages: 1 -->
<svg width="296pt" height="126pt"
 viewBox="0.00 0.00 296.00 126.00" xmlns="http://www.w3.org/2000/svg" xmlns:xlink="http://www.w3.org/1999/xlink">
<g id="graph0" class="graph" transform="scale(1 1) rotate(0) translate(4 122)">
<title>Иерархия классов. Графический вид.</title>
<polygon fill="white" stroke="none" points="-4,4 -4,-122 292,-122 292,4 -4,4"/>
<!-- Node41 -->
<g id="node1" class="node"><title>Node41</title>
<polygon fill="white" stroke="#bfbfbf" points="0,-49.5 0,-68.5 60,-68.5 60,-49.5 0,-49.5"/>
<text text-anchor="middle" x="30" y="-56.5" font-family="Helvetica,sans-Serif" font-size="10.00">Exception</text>
</g>
<!-- Node0 -->
<g id="node2" class="node"><title>Node0</title>
<g id="a_node2"><a xlink:href="classASCIIWars_1_1Game_1_1FullInventoryException.html" target="_top" xlink:title="ASCIIWars.Game.FullInventory\lException">
<polygon fill="white" stroke="black" points="114,-88 114,-118 270,-118 270,-88 114,-88"/>
<text text-anchor="start" x="122" y="-106" font-family="Helvetica,sans-Serif" font-size="10.00">ASCIIWars.Game.FullInventory</text>
<text text-anchor="middle" x="192" y="-95" font-family="Helvetica,sans-Serif" font-size="10.00">Exception</text>
</a>
</g>
</g>
<!-- Node41&#45;&gt;Node0 -->
<g id="edge1" class="edge"><title>Node41&#45;&gt;Node0</title>
<path fill="none" stroke="midnightblue" d="M69.8765,-70.5502C78.4674,-73.0505 87.5321,-75.6486 96,-78 107.914,-81.3082 120.699,-84.7477 132.906,-87.9788"/>
<polygon fill="midnightblue" stroke="midnightblue" points="70.6538,-67.1309 60.0732,-67.6806 68.6873,-73.849 70.6538,-67.1309"/>
</g>
<!-- Node43 -->
<g id="node3" class="node"><title>Node43</title>
<g id="a_node3"><a xlink:href="classASCIIWars_1_1Game_1_1GameOverException.html" target="_top" xlink:title="Исключение, которое выбрасывается при окончании игры. ">
<polygon fill="white" stroke="black" points="96,-49.5 96,-68.5 288,-68.5 288,-49.5 96,-49.5"/>
<text text-anchor="middle" x="192" y="-56.5" font-family="Helvetica,sans-Serif" font-size="10.00">ASCIIWars.Game.GameOverException</text>
</a>
</g>
</g>
<!-- Node41&#45;&gt;Node43 -->
<g id="edge2" class="edge"><title>Node41&#45;&gt;Node43</title>
<path fill="none" stroke="midnightblue" d="M70.5961,-59C78.4651,-59 87.0413,-59 95.8727,-59"/>
<polygon fill="midnightblue" stroke="midnightblue" points="70.3465,-55.5001 60.3465,-59 70.3464,-62.5001 70.3465,-55.5001"/>
</g>
<!-- Node44 -->
<g id="node4" class="node"><title>Node44</title>
<g id="a_node4"><a xlink:href="classASCIIWars_1_1Modding_1_1ModLoadException.html" target="_top" xlink:title="ASCIIWars.Modding.ModLoad\lException">
<polygon fill="white" stroke="black" points="116,-0 116,-30 268,-30 268,-0 116,-0"/>
<text text-anchor="start" x="124" y="-18" font-family="Helvetica,sans-Serif" font-size="10.00">ASCIIWars.Modding.ModLoad</text>
<text text-anchor="middle" x="192" y="-7" font-family="Helvetica,sans-Serif" font-size="10.00">Exception</text>
</a>
</g>
</g>
<!-- Node41&#45;&gt;Node44 -->
<g id="edge3" class="edge"><title>Node41&#45;&gt;Node44</title>
<path fill="none" stroke="midnightblue" d="M69.8765,-47.4498C78.4674,-44.9495 87.5321,-42.3514 96,-40 107.914,-36.6918 120.699,-33.2523 132.906,-30.0212"/>
<polygon fill="midnightblue" stroke="midnightblue" points="68.6873,-44.151 60.0732,-50.3194 70.6538,-50.8691 68.6873,-44.151"/>
</g>
</g>
</svg>
